<svg width="578" height="18" viewBox="0 0 578 18" fill="none" xmlns="http://www.w3.org/2000/svg">
<line y1="-1.5" x2="26.5706" y2="-1.5" transform="matrix(0.79837 0.602167 -0.79837 0.602167 0 2)" stroke="#CA4E4E" stroke-width="3"/>
<line y1="-1.5" x2="26.5706" y2="-1.5" transform="matrix(0.79837 -0.602167 0.79837 0.602167 21.2842 17.9998)" stroke="#CA4E4E" stroke-width="3"/>
<line y1="-1.5" x2="26.5706" y2="-1.5" transform="matrix(0.79837 0.602167 -0.79837 0.602167 38.2842 2)" stroke="#CA4E4E" stroke-width="3"/>
<line y1="-1.5" x2="26.5706" y2="-1.5" transform="matrix(0.79837 -0.602167 0.79837 0.602167 59.5684 17.9998)" stroke="#CA4E4E" stroke-width="3"/>
<line y1="-1.5" x2="26.5706" y2="-1.5" transform="matrix(0.79837 0.602167 -0.79837 0.602167 76.2842 2)" stroke="#CA4E4E" stroke-width="3"/>
<line y1="-1.5" x2="26.5706" y2="-1.5" transform="matrix(0.79837 -0.602167 0.79837 0.602167 97.5684 17.9998)" stroke="#CA4E4E" stroke-width="3"/>
<line y1="-1.5" x2="26.5706" y2="-1.5" transform="matrix(0.79837 0.602167 -0.79837 0.602167 114.568 2)" stroke="#CA4E4E" stroke-width="3"/>
<line y1="-1.5" x2="26.5706" y2="-1.5" transform="matrix(0.79837 -0.602167 0.79837 0.602167 135.853 17.9998)" stroke="#CA4E4E" stroke-width="3"/>
<line y1="-1.5" x2="26.5706" y2="-1.5" transform="matrix(0.79837 0.602167 -0.79837 0.602167 152.284 2)" stroke="#CA4E4E" stroke-width="3"/>
<line y1="-1.5" x2="26.5706" y2="-1.5" transform="matrix(0.79837 -0.602167 0.79837 0.602167 173.568 17.9998)" stroke="#CA4E4E" stroke-width="3"/>
<line y1="-1.5" x2="26.5706" y2="-1.5" transform="matrix(0.79837 0.602167 -0.79837 0.602167 190.568 2)" stroke="#CA4E4E" stroke-width="3"/>
<line y1="-1.5" x2="26.5706" y2="-1.5" transform="matrix(0.79837 -0.602167 0.79837 0.602167 211.853 17.9998)" stroke="#CA4E4E" stroke-width="3"/>
<line y1="-1.5" x2="26.5706" y2="-1.5" transform="matrix(0.79837 0.602167 -0.79837 0.602167 229 2)" stroke="#CA4E4E" stroke-width="3"/>
<line y1="-1.5" x2="26.5706" y2="-1.5" transform="matrix(0.79837 -0.602167 0.79837 0.602167 250.284 17.9998)" stroke="#CA4E4E" stroke-width="3"/>
<line y1="-1.5" x2="26.5706" y2="-1.5" transform="matrix(0.79837 0.602167 -0.79837 0.602167 267.284 2)" stroke="#CA4E4E" stroke-width="3"/>
<line y1="-1.5" x2="26.5706" y2="-1.5" transform="matrix(0.79837 -0.602167 0.79837 0.602167 288.568 17.9998)" stroke="#CA4E4E" stroke-width="3"/>
<line y1="-1.5" x2="26.5706" y2="-1.5" transform="matrix(0.79837 0.602167 -0.79837 0.602167 305.284 2)" stroke="#CA4E4E" stroke-width="3"/>
<line y1="-1.5" x2="26.5706" y2="-1.5" transform="matrix(0.79837 -0.602167 0.79837 0.602167 326.568 17.9998)" stroke="#CA4E4E" stroke-width="3"/>
<line y1="-1.5" x2="26.5706" y2="-1.5" transform="matrix(0.79837 0.602167 -0.79837 0.602167 343.568 2)" stroke="#CA4E4E" stroke-width="3"/>
<line y1="-1.5" x2="26.5706" y2="-1.5" transform="matrix(0.79837 -0.602167 0.79837 0.602167 364.853 17.9998)" stroke="#CA4E4E" stroke-width="3"/>
<line y1="-1.5" x2="26.5706" y2="-1.5" transform="matrix(0.79837 0.602167 -0.79837 0.602167 381.284 2)" stroke="#CA4E4E" stroke-width="3"/>
<line y1="-1.5" x2="26.5706" y2="-1.5" transform="matrix(0.79837 -0.602167 0.79837 0.602167 402.568 17.9998)" stroke="#CA4E4E" stroke-width="3"/>
<line y1="-1.5" x2="26.5706" y2="-1.5" transform="matrix(0.79837 0.602167 -0.79837 0.602167 419.568 2)" stroke="#CA4E4E" stroke-width="3"/>
<line y1="-1.5" x2="26.5706" y2="-1.5" transform="matrix(0.79837 -0.602167 0.79837 0.602167 440.853 17.9998)" stroke="#CA4E4E" stroke-width="3"/>
<line y1="-1.5" x2="26.5706" y2="-1.5" transform="matrix(0.79837 0.602167 -0.79837 0.602167 458 2)" stroke="#CA4E4E" stroke-width="3"/>
<line y1="-1.5" x2="26.5706" y2="-1.5" transform="matrix(0.79837 -0.602167 0.79837 0.602167 479.284 17.9998)" stroke="#CA4E4E" stroke-width="3"/>
<line y1="-1.5" x2="26.5706" y2="-1.5" transform="matrix(0.79837 0.602167 -0.79837 0.602167 496.284 2)" stroke="#CA4E4E" stroke-width="3"/>
<line y1="-1.5" x2="26.5706" y2="-1.5" transform="matrix(0.79837 -0.602167 0.79837 0.602167 517.568 17.9998)" stroke="#CA4E4E" stroke-width="3"/>
<line y1="-1.5" x2="26.5706" y2="-1.5" transform="matrix(0.79837 0.602167 -0.79837 0.602167 535 2)" stroke="#CA4E4E" stroke-width="3"/>
<line y1="-1.5" x2="26.5706" y2="-1.5" transform="matrix(0.79837 -0.602167 0.79837 0.602167 556.284 17.9998)" stroke="#CA4E4E" stroke-width="3"/>
</svg>
