<svg id="Layer_1" enable-background="new 0 0 512 512" height="512" viewBox="0 0 512 512" width="512" xmlns="http://www.w3.org/2000/svg" xmlns:xlink="http://www.w3.org/1999/xlink"><linearGradient id="SVGID_1_" gradientUnits="userSpaceOnUse" x1="63.504" x2="448.494" y1="448.491" y2="63.502"><stop offset="0" stop-color="#011c49"/><stop offset="1" stop-color="#00b8e0"/></linearGradient><path clip-rule="evenodd" d="m83.548 259.375c-58.673 54.154-88.024 106.597-70.526 136.905 19.06 33.013 88.648 31.033 174.598.45 37.131-13.212 77.316-31.762 117.799-55.135 40.484-23.373 76.641-48.899 106.648-74.45 69.46-59.143 105.969-118.419 86.909-151.431-17.498-30.307-77.59-31.111-153.822-7.377 8.859 5.34 17.231 11.473 24.997 18.328 2.595 2.291 5.117 4.658 7.563 7.097 33.885-7.748 60.524-5.352 70.21 11.427 8.601 14.897-11.927 41.18-41.314 68.285-43.065 39.721-105.158 81.208-122.496 91.219-51.167 29.541-101.261 50.142-140.818 61.085-42.389 11.726-72.678 12.363-79.222 1.028-10.791-18.69 1.199-41.816 25.105-66.914-.872-3.305-1.646-6.639-2.32-9.998-2.014-10.05-3.119-20.276-3.311-30.519zm126.365 146.13c35.7-13.859 70.453-30.97 103.506-50.054 33.054-19.084 65.249-40.625 95.101-64.612-9.356 40.932-35.06 78.007-74.291 100.657s-84.19 26.372-124.316 14.009zm-107.366-118.759c-2.789-13.908-3.63-27.996-2.625-41.882 3.61-50.012 31.152-97.407 77.847-124.367s101.512-27.113 146.631-5.235c12.607 6.113 24.458 13.947 35.161 23.397 12.378 10.928 23.224 24.017 31.936 39.106 3.619 5.892 6.753 12.986 9.225 19.309-1.661 1.577-3.319 3.124-4.96 4.638-21.612 19.933-45.521 38.362-69.388 55.521-15.893 11.426-33.302 23.811-50.261 33.603-42.141 24.33-90.075 46.516-137.084 59.52-2.123.587-4.276 1.166-6.451 1.728-4.39-5.814-9.115-12.463-12.078-17.857-8.76-15.173-14.69-31.204-17.953-47.481zm103.566-133.087c2.192 3.814.876 8.683-2.938 10.875-15.193 8.771-27.681 20.986-36.698 35.396-9.027 14.426-14.558 31.038-15.826 48.585-.31 4.401-4.13 7.717-8.531 7.406-4.401-.31-7.717-4.13-7.406-8.531 1.459-20.197 7.82-39.31 18.201-55.898 10.368-16.568 24.768-30.636 42.324-40.771 3.813-2.191 8.682-.876 10.874 2.938z" fill="url(#SVGID_1_)" fill-rule="evenodd"/></svg>